<svg width="22" height="17" viewBox="0 0 22 17" fill="none" xmlns="http://www.w3.org/2000/svg">
<path d="M15.7487 1.6267C16.0069 1.42801 16.3135 1.2704 16.6509 1.16287C16.9883 1.05534 17.3499 1 17.7152 1C18.0804 1 18.442 1.05534 18.7794 1.16287C19.1168 1.2704 19.4234 1.42801 19.6816 1.6267C19.9399 1.82538 20.1447 2.06126 20.2845 2.32086C20.4243 2.58045 20.4962 2.85869 20.4962 3.13968C20.4962 3.42066 20.4243 3.6989 20.2845 3.95849C20.1447 4.21809 19.9399 4.45397 19.6816 4.65266L6.40785 14.8653L1 16L2.47487 11.8393L15.7487 1.6267Z" stroke="white" stroke-width="2" stroke-linecap="round" stroke-linejoin="round"/>
</svg>
