<svg width="17" height="19" viewBox="0 0 17 19" fill="none" xmlns="http://www.w3.org/2000/svg">
<path d="M13.4575 6.10004C14.8335 6.10004 15.949 4.95836 15.949 3.55002C15.949 2.14168 14.8335 1 13.4575 1C12.0815 1 10.9661 2.14168 10.9661 3.55002C10.9661 4.95836 12.0815 6.10004 13.4575 6.10004Z" stroke="white" stroke-width="2" stroke-linecap="round" stroke-linejoin="round"/>
<path d="M3.49147 12.0501C4.86747 12.0501 5.98294 10.9084 5.98294 9.50009C5.98294 8.09176 4.86747 6.95007 3.49147 6.95007C2.11547 6.95007 1 8.09176 1 9.50009C1 10.9084 2.11547 12.0501 3.49147 12.0501Z" stroke="white" stroke-width="2" stroke-linecap="round" stroke-linejoin="round"/>
<path d="M13.4575 18.0002C14.8335 18.0002 15.949 16.8585 15.949 15.4502C15.949 14.0418 14.8335 12.9001 13.4575 12.9001C12.0815 12.9001 10.9661 14.0418 10.9661 15.4502C10.9661 16.8585 12.0815 18.0002 13.4575 18.0002Z" stroke="white" stroke-width="2" stroke-linecap="round" stroke-linejoin="round"/>
<path d="M5.64258 10.7833L11.3148 14.1664" stroke="white" stroke-width="2" stroke-linecap="round" stroke-linejoin="round"/>
<path d="M11.3065 4.83337L5.64258 8.2164" stroke="white" stroke-width="2" stroke-linecap="round" stroke-linejoin="round"/>
</svg>
